    <svg id="logo-light" viewBox="0 0 109 75" fill="none">
        <path d="M37.8922 75C58.8195 75 75.7844 58.2107 75.7844 37.5C75.7844 16.7893 58.8195 0 37.8922 0C16.9649 0 0 16.7893 0 37.5C0 58.2107 16.9649 75 37.8922 75Z" fill="#9D1D86"/>
        <path d="M37.8919 62.2801C51.7207 62.2801 62.9313 51.1856 62.9313 37.4999C62.9313 23.8142 51.7207 12.7197 37.8919 12.7197C24.063 12.7197 12.8525 23.8142 12.8525 37.4999C12.8525 51.1856 24.063 62.2801 37.8919 62.2801Z" fill="white"/>
        <path d="M94.9776 27.5878V13.7109H66.9375V61.2889H109L108.992 27.5878H94.9776Z" fill="white"/>
        <path d="M19.1851 41.4688H21.0805V35.3794H23.4708V33.78H16.7949V35.3794H19.1851V41.4688Z" fill="#231F20"/>
        <path d="M31.5431 34.7672C31.1502 34.3996 30.6914 34.1077 30.1904 33.9063C29.1013 33.485 27.8918 33.485 26.8026 33.9063C26.3042 34.1058 25.8491 34.3981 25.4619 34.7672C25.0789 35.1417 24.7757 35.5884 24.5701 36.0808C24.3645 36.5732 24.2607 37.1014 24.2648 37.6342C24.2607 38.1764 24.3679 38.7138 24.58 39.2138C24.7839 39.6959 25.0839 40.1324 25.4619 40.4973C25.8531 40.8651 26.3124 41.1547 26.8146 41.3503C27.9046 41.767 29.1124 41.767 30.2024 41.3503C30.7034 41.1489 31.1621 40.857 31.5551 40.4894C31.9344 40.1261 32.2381 39.6927 32.4489 39.2138C32.6653 38.7149 32.7753 38.1771 32.7722 37.6342C32.7785 37.1011 32.6757 36.5722 32.47 36.0795C32.2642 35.5868 31.9598 35.1404 31.5751 34.7672H31.5431ZM30.6812 38.5899C30.561 38.8733 30.3861 39.1308 30.1665 39.3481C29.7075 39.7911 29.0918 40.0391 28.4506 40.0392C28.1298 40.0414 27.812 39.9782 27.5169 39.8536C27.2387 39.7346 26.9876 39.5613 26.7787 39.3442C26.5672 39.1258 26.4018 38.8681 26.2918 38.5859C26.1774 38.2816 26.1206 37.9589 26.1243 37.6342C26.1207 37.3071 26.1817 36.9825 26.3038 36.6786C26.418 36.3958 26.5875 36.1381 26.8026 35.9203C27.0174 35.7038 27.2757 35.5343 27.5608 35.4228C28.1617 35.186 28.8314 35.186 29.4322 35.4228C29.7174 35.5343 29.9756 35.7038 30.1904 35.9203C30.4058 36.1387 30.5765 36.3961 30.6932 36.6786C30.8151 36.9826 30.8761 37.3072 30.8728 37.6342C30.8765 37.9625 30.8113 38.2879 30.6812 38.5899Z" fill="#231F20"/>
        <path d="M35.9891 33.78H34.0977V38.7992H39.0257V41.4688H40.9171V33.78H39.0257V37.1999H35.9891V33.78Z" fill="#231F20"/>
        <path d="M50.0911 33.78H47.9843L45.0354 37.6066V33.78H43.124V41.4688H45.0354V37.8001L47.8765 41.4688H50.2188L47.0465 37.5395L50.0911 33.78Z" fill="#231F20"/>
        <path d="M57.0374 33.7761V34.6764L56.7661 34.4553C56.4633 34.2012 56.1228 33.9948 55.7565 33.8432C55.3263 33.6734 54.867 33.5876 54.4038 33.5905C53.8578 33.5863 53.316 33.6854 52.8077 33.8827C52.3261 34.0724 51.8879 34.3557 51.5188 34.7159C51.1447 35.0886 50.8455 35.5282 50.6369 36.0112C50.4183 36.5222 50.3057 37.0715 50.3057 37.6264C50.3057 38.1813 50.4183 38.7305 50.6369 39.2415C50.8456 39.7234 51.1449 40.1616 51.5188 40.5329C51.8887 40.893 52.3267 41.1775 52.8077 41.37C53.316 41.5673 53.8578 41.6665 54.4038 41.6623C54.8668 41.6628 55.3257 41.5771 55.7565 41.4095C56.1229 41.2564 56.4633 41.0486 56.7661 40.7935L57.0374 40.5723V41.5083H58.9927V33.7761H57.0374ZM56.8379 38.5386C56.7255 38.8265 56.5528 39.0876 56.3311 39.3047C56.1072 39.5224 55.8448 39.6978 55.557 39.822C55.2503 39.9503 54.9203 40.0148 54.5874 40.0116C54.263 40.0151 53.9412 39.9533 53.6417 39.8299C53.3574 39.7116 53.1008 39.5369 52.8875 39.3166C52.6742 39.0966 52.5037 38.8396 52.3847 38.5583C52.1349 37.9603 52.1349 37.2885 52.3847 36.6905C52.5082 36.4043 52.684 36.1432 52.9035 35.9204C53.1178 35.7013 53.3742 35.5267 53.6576 35.407C54.2711 35.1569 54.9595 35.1569 55.573 35.407C55.8608 35.5313 56.1231 35.7066 56.3471 35.9243C56.5696 36.1408 56.7424 36.4021 56.8539 36.6905C57.0774 37.2785 57.0774 37.9269 56.8539 38.5149L56.8379 38.5386Z" fill="#231F20"/>
        <path d="M82.4448 33.78H80.5693V41.4688H82.5366L86.0999 36.3706V41.4688H87.9794V33.78H86.0081L82.4448 38.8782V33.78Z" fill="#231F20"/>
        <path d="M91.8892 41.4688H93.7847V35.3794H96.1749V33.78H89.499V35.3794H91.8892V41.4688Z" fill="#231F20"/>
        <path d="M99.5191 33.78H97.6396V41.4688H99.6109L103.174 36.3706V41.4688H105.05V33.78H103.078L99.5191 38.8782V33.78Z" fill="#231F20"/>
        <path d="M76.0679 35.4228C76.3601 35.5318 76.6254 35.7015 76.846 35.9203C77.0094 36.093 77.1441 36.2903 77.245 36.5048L79.0367 35.9796C78.8309 35.5243 78.5382 35.1127 78.1748 34.7672C77.7898 34.4009 77.3392 34.1089 76.846 33.9063C75.7568 33.485 74.5473 33.485 73.4582 33.9063C72.9583 34.1053 72.5018 34.3976 72.1134 34.7672C71.7363 35.1337 71.4353 35.5697 71.2276 36.0506C71.0113 36.5496 70.9012 37.0873 70.9044 37.6303C70.9022 38.1723 71.0094 38.7093 71.2196 39.2099C71.425 39.6921 71.7263 40.1286 72.1055 40.4933C72.4967 40.8611 72.956 41.1507 73.4582 41.3463C74.5482 41.763 75.756 41.763 76.846 41.3463C77.3463 41.1459 77.8039 40.8538 78.1947 40.4854C78.5476 40.1451 78.8343 39.7435 79.0407 39.3007L77.241 38.7715C77.1301 38.9779 76.9889 39.1669 76.822 39.3323C76.4789 39.664 76.0449 39.8887 75.5739 39.9785C75.1029 40.0684 74.6156 40.0195 74.1724 39.8378C73.8931 39.7189 73.6407 39.5456 73.4302 39.3283C73.22 39.1099 73.0559 38.8521 72.9474 38.5701C72.8317 38.266 72.7736 37.9434 72.7758 37.6184C72.7725 37.2914 72.8335 36.9668 72.9554 36.6628C73.071 36.3798 73.2419 36.1221 73.4582 35.9045C73.6729 35.688 73.9312 35.5185 74.2163 35.407C74.8133 35.1805 75.4749 35.1861 76.0679 35.4228Z" fill="#231F20"/>
    </svg>