<?xml version="1.0" encoding="UTF-8" standalone="no"?>
<svg
   id="logo-light"
   viewBox="0 0 109 75"
   fill="none"
   version="1.1"
   sodipodi:docname="logo-dark-2.svg"
   inkscape:version="1.1.2 (b8e25be833, 2022-02-05)"
   xmlns:inkscape="http://www.inkscape.org/namespaces/inkscape"
   xmlns:sodipodi="http://sodipodi.sourceforge.net/DTD/sodipodi-0.dtd"
   xmlns="http://www.w3.org/2000/svg"
   xmlns:svg="http://www.w3.org/2000/svg">
  <defs
     id="defs29" />
  <sodipodi:namedview
     id="namedview27"
     pagecolor="#ffffff"
     bordercolor="#666666"
     borderopacity="1.0"
     inkscape:pageshadow="2"
     inkscape:pageopacity="0.0"
     inkscape:pagecheckerboard="0"
     showgrid="false"
     inkscape:zoom="4.853211"
     inkscape:cx="62.123819"
     inkscape:cy="41.003781"
     inkscape:window-width="1920"
     inkscape:window-height="1017"
     inkscape:window-x="-8"
     inkscape:window-y="-8"
     inkscape:window-maximized="1"
     inkscape:current-layer="logo-light" />
  <path
     d="M 37.892202,75 C 58.819499,75 75.7844,58.2107 75.7844,37.5 75.7844,16.7893 58.819499,0 37.892202,0 16.9649,0 0,16.7893 0,37.5 0,58.2107 16.9649,75 37.892202,75 Z"
     fill="#9d1d86"
     id="path2"
     style="stroke-width:0.999992;fill:none" />
  <path
     d="m 11.081119,44.608425 c 5.735731,0 10.385518,-4.601634 10.385518,-10.278012 0,-5.676376 -4.649787,-10.27801 -10.385518,-10.27801 -5.7357706,0 -10.3855171,4.601634 -10.3855171,10.27801 0,5.676378 4.6497465,10.278012 10.3855171,10.278012 z"
     fill="#ffffff"
     id="path4"
     style="fill:#ffffff;stroke-width:0.414765" />
  <path
     d="M 36.336523,29.92769 V 24.172008 H 24.706419 v 19.733788 h 17.44614 l -0.0033,-13.978106 z"
     fill="#ffffff"
     id="path6"
     style="fill:#ffffff;stroke-width:0.414765" />
  <path
     d="m 48.266595,37.242267 h 1.507 v -4.841576 h 1.900487 V 31.129036 H 46.36619 v 1.271655 h 1.900405 z"
     fill="#231f20"
     id="path8"
     style="fill:#ffffff;stroke-width:0.795078" />
  <path
     d="m 58.092228,31.913939 c -0.312386,-0.292272 -0.677171,-0.524356 -1.075506,-0.684485 -0.865925,-0.334968 -1.827578,-0.334968 -2.693582,0 -0.396268,0.158622 -0.758114,0.39102 -1.065968,0.684485 -0.304517,0.297758 -0.545587,0.652922 -0.709054,1.044423 -0.163468,0.391499 -0.246001,0.811459 -0.242738,1.235079 -0.0034,0.431095 0.08198,0.858373 0.250609,1.255914 0.162118,0.38331 0.400642,0.730364 0.701183,1.020489 0.311038,0.292432 0.676216,0.522686 1.075508,0.678204 0.866641,0.331311 1.82694,0.331311 2.693582,0 0.398336,-0.160128 0.763041,-0.392214 1.07551,-0.684489 0.301572,-0.288852 0.543041,-0.63344 0.710642,-1.014204 0.172052,-0.396667 0.259515,-0.824263 0.257054,-1.255914 0.0051,-0.423859 -0.07673,-0.844376 -0.240277,-1.236113 -0.163623,-0.39174 -0.405651,-0.746665 -0.71152,-1.043389 z m -0.685279,3.039364 c -0.09559,0.225327 -0.234629,0.430058 -0.40923,0.602832 -0.364947,0.352221 -0.854478,0.549399 -1.364284,0.54948 -0.25506,0.0019 -0.507738,-0.04849 -0.74237,-0.147563 -0.221189,-0.09463 -0.420832,-0.232401 -0.586929,-0.405012 -0.168158,-0.173648 -0.299666,-0.37854 -0.387126,-0.602911 -0.09097,-0.241944 -0.136123,-0.498518 -0.133182,-0.756683 -0.003,-0.260071 0.04564,-0.518154 0.142718,-0.75978 0.09081,-0.224849 0.225564,-0.429742 0.396585,-0.602912 0.170791,-0.17214 0.376153,-0.306901 0.602833,-0.395551 0.477767,-0.188276 1.01023,-0.188276 1.487916,0 0.22676,0.08862 0.432048,0.223415 0.602832,0.395551 0.171258,0.173648 0.306982,0.378303 0.399771,0.602912 0.09691,0.241705 0.145417,0.499792 0.142788,0.75978 0.003,0.261027 -0.04889,0.519748 -0.152342,0.759861 z"
     fill="#231f20"
     id="path10"
     style="fill:#ffffff;stroke-width:0.795078" />
  <path
     d="M 61.627165,31.129036 H 60.12335 v 3.990677 h 3.918168 v 2.122554 h 1.503815 v -6.113231 h -1.503815 v 2.7191 h -2.414353 z"
     fill="#231f20"
     id="path12"
     style="fill:#ffffff;stroke-width:0.795078" />
  <path
     d="m 72.839425,31.129036 h -1.67508 l -2.34462,3.042463 v -3.042463 h -1.519722 v 6.113231 h 1.519722 v -2.916921 l 2.258908,2.916921 h 1.862325 l -2.522243,-3.124119 z"
     fill="#231f20"
     id="path14"
     style="fill:#ffffff;stroke-width:0.795078" />
  <path
     d="m 78.362308,31.125933 v 0.715814 l -0.215706,-0.175795 c -0.24075,-0.20203 -0.511478,-0.366135 -0.802716,-0.486669 -0.342044,-0.135015 -0.707227,-0.203222 -1.075509,-0.200919 -0.434115,-0.0035 -0.864891,0.07547 -1.269029,0.232325 -0.382916,0.150834 -0.731321,0.376075 -1.024785,0.662462 -0.297442,0.296329 -0.535328,0.645847 -0.701181,1.029872 -0.173807,0.406287 -0.263333,0.843027 -0.263333,1.284219 0,0.44119 0.08951,0.877849 0.263333,1.284137 0.165926,0.383149 0.403901,0.731554 0.701181,1.026768 0.294104,0.286312 0.642348,0.512511 1.024785,0.665565 0.404138,0.156876 0.834914,0.235743 1.269029,0.232403 0.368122,3.99e-4 0.732986,-0.06775 1.075509,-0.200997 0.291317,-0.121723 0.561966,-0.286946 0.802716,-0.48977 l 0.215706,-0.175873 v 0.744198 h 1.554623 v -6.14774 z m -0.158624,3.786581 c -0.08939,0.228906 -0.226675,0.436502 -0.402945,0.609113 -0.178016,0.173092 -0.386651,0.312547 -0.615474,0.411297 -0.243852,0.102023 -0.506229,0.153292 -0.770912,0.150748 -0.257928,0.003 -0.513781,-0.04637 -0.75191,-0.144466 -0.226042,-0.09405 -0.430059,-0.232961 -0.599652,-0.408113 -0.169596,-0.17492 -0.305154,-0.379256 -0.399764,-0.602914 -0.198613,-0.475459 -0.198613,-1.009596 0,-1.485054 0.09821,-0.227555 0.237965,-0.435151 0.412487,-0.612294 0.170391,-0.174203 0.374245,-0.313026 0.599573,-0.408195 0.48778,-0.19885 1.035116,-0.19885 1.522901,0 0.228825,0.09883 0.437372,0.238208 0.61547,0.411296 0.176907,0.172139 0.314297,0.37989 0.402949,0.609193 0.1777,0.467508 0.1777,0.98304 0,1.450548 z"
     fill="#231f20"
     id="path16"
     style="fill:#ffffff;stroke-width:0.795078" />
  <path
     d="m 90.371989,31.129036 h -1.491181 v 6.113231 h 1.564167 l 2.833118,-4.053491 v 4.053491 h 1.494363 v -6.113231 h -1.567352 l -2.833115,4.05349 z"
     fill="#231f20"
     id="path18"
     style="fill:#ffffff;stroke-width:0.795078" />
  <path
     d="m 97.881072,37.242267 h 1.50708 v -4.841576 h 1.900408 v -1.271655 h -5.307902 v 1.271655 h 1.900414 z"
     fill="#231f20"
     id="path20"
     style="fill:#ffffff;stroke-width:0.795078" />
  <path
     d="m 103.94747,31.129036 h -1.49438 v 6.113231 h 1.56735 l 2.83295,-4.053491 v 4.053491 h 1.49159 v -6.113231 h -1.56791 l -2.8296,4.05349 z"
     fill="#231f20"
     id="path22"
     style="fill:#ffffff;stroke-width:0.795078" />
  <path
     d="m 85.301822,32.435196 c 0.232325,0.08666 0.443259,0.22159 0.618653,0.395554 0.129911,0.137317 0.237019,0.294182 0.31724,0.464726 l 1.424551,-0.417581 c -0.163625,-0.361997 -0.396349,-0.689256 -0.685282,-0.963956 -0.306108,-0.291239 -0.664371,-0.523404 -1.056509,-0.684485 -0.866003,-0.334968 -1.827656,-0.334968 -2.69358,0 -0.397459,0.158224 -0.760415,0.390622 -1.069227,0.684485 -0.299824,0.291399 -0.539145,0.638054 -0.704279,1.020409 -0.171985,0.396746 -0.259517,0.824264 -0.256975,1.255993 -0.0019,0.430936 0.08348,0.857894 0.250609,1.255911 0.163314,0.383391 0.402866,0.730445 0.704365,1.020412 0.311036,0.29243 0.676219,0.522685 1.075507,0.678205 0.866642,0.331313 1.826943,0.331313 2.69358,0 0.397784,-0.159332 0.761613,-0.391579 1.072334,-0.684488 0.280582,-0.270565 0.508532,-0.589872 0.672638,-0.941933 l -1.43091,-0.420759 c -0.08818,0.164108 -0.200442,0.314377 -0.333142,0.445885 -0.272793,0.263726 -0.617858,0.44238 -0.992344,0.513779 -0.374483,0.07148 -0.761927,0.0326 -1.114306,-0.111874 -0.222069,-0.09453 -0.422747,-0.232321 -0.590112,-0.405094 -0.16712,-0.173643 -0.297599,-0.378617 -0.383865,-0.602828 -0.092,-0.241786 -0.138182,-0.498279 -0.136435,-0.756682 -0.0027,-0.259993 0.04589,-0.518076 0.142804,-0.759782 0.09194,-0.225009 0.227795,-0.429901 0.399767,-0.60291 0.170704,-0.17214 0.376077,-0.306902 0.602755,-0.395556 0.474664,-0.180083 1.000688,-0.175633 1.472171,0.01246 z"
     fill="#231f20"
     id="path24"
     style="fill:#ffffff;stroke-width:0.795078" />
</svg>
