<svg xmlns="http://www.w3.org/2000/svg" id="logo">
        <path d="M37.8922 75C58.8195 75 75.7844 58.2107 75.7844 37.5C75.7844 16.7893 58.8195 0 37.8922 0C16.9649 0 0 16.7893 0 37.5C0 58.2107 16.9649 75 37.8922 75Z" fill="#fff" />
        <path d="M37.8919 62.2801C51.7207 62.2801 62.9313 51.1856 62.9313 37.4999C62.9313 23.8142 51.7207 12.7197 37.8919 12.7197C24.063 12.7197 12.8525 23.8142 12.8525 37.4999C12.8525 51.1856 24.063 62.2801 37.8919 62.2801Z" fill="black" />
        <path d="M94.9776 27.5878V13.7109H66.9375V61.2889H109L108.992 27.5878H94.9776Z" fill="black" />
</svg>