<?xml version="1.0" encoding="UTF-8" standalone="no"?>
<svg
   id="logo-light"
   viewBox="0 0 109 75"
   fill="none"
   version="1.1"
   sodipodi:docname="logo-light-2.svg"
   inkscape:version="1.1.2 (b8e25be833, 2022-02-05)"
   xmlns:inkscape="http://www.inkscape.org/namespaces/inkscape"
   xmlns:sodipodi="http://sodipodi.sourceforge.net/DTD/sodipodi-0.dtd"
   xmlns="http://www.w3.org/2000/svg"
   xmlns:svg="http://www.w3.org/2000/svg">
   <defs
      id="defs29" />
   <sodipodi:namedview
      id="namedview27"
      pagecolor="#ffffff"
      bordercolor="#666666"
      borderopacity="1.0"
      inkscape:pageshadow="2"
      inkscape:pageopacity="0.0"
      inkscape:pagecheckerboard="0"
      showgrid="false"
      inkscape:zoom="4.853211"
      inkscape:cx="62.123819"
      inkscape:cy="41.003781"
      inkscape:window-width="1920"
      inkscape:window-height="1017"
      inkscape:window-x="-8"
      inkscape:window-y="-8"
      inkscape:window-maximized="1"
      inkscape:current-layer="logo-light" />
   <path
      d="M 37.892202,75 C 58.819499,75 75.7844,58.2107 75.7844,37.5 75.7844,16.7893 58.819499,0 37.892202,0 16.9649,0 0,16.7893 0,37.5 0,58.2107 16.9649,75 37.892202,75 Z"
      fill="#9d1d86"
      id="path2"
      style="stroke-width:0.999992;fill:none" />
   <path
      d="m 15.740047,51.559019 c 8.422568,0 15.250496,-6.757216 15.250496,-15.092628 0,-8.335411 -6.827928,-15.092627 -15.250496,-15.092627 -8.4226269,0 -15.25049425,6.757216 -15.25049425,15.092627 0,8.335412 6.82786735,15.092628 15.25049425,15.092628 z"
      fill="#ffffff"
      id="path4"
      style="fill:#000000;stroke-width:0.609056" />
   <path
      d="M 51.010633,30.303832 V 21.851968 H 33.932541 v 28.977854 h 25.618584 l -0.0048,-20.52599 z"
      fill="#ffffff"
      id="path6"
      style="fill:#000000;stroke-width:0.609056" />
   <path
      d="m 61.949276,38.632698 h 1.154412 v -3.708809 h 1.455836 v -0.974131 h -4.066023 v 0.974131 h 1.455775 z"
      fill="#231f20"
      id="path8"
      style="stroke-width:0.609056" />
   <path
      d="m 69.476039,34.551021 c -0.239299,-0.223891 -0.518736,-0.401675 -0.823875,-0.524339 -0.663326,-0.256597 -1.399985,-0.256597 -2.063375,0 -0.303553,0.121507 -0.580738,0.299535 -0.816566,0.524339 -0.233269,0.228093 -0.417937,0.50016 -0.543158,0.800062 -0.125224,0.299901 -0.188445,0.621606 -0.185946,0.946112 -0.0025,0.330233 0.0628,0.657542 0.191975,0.962072 0.124185,0.293628 0.306905,0.559483 0.537129,0.781728 0.238266,0.224014 0.518005,0.400396 0.823876,0.519528 0.663875,0.253795 1.399498,0.253795 2.063373,0 0.30514,-0.122664 0.584516,-0.300449 0.823877,-0.52434 0.231015,-0.221272 0.415987,-0.485237 0.544376,-0.776916 0.131802,-0.30386 0.198798,-0.631412 0.196911,-0.962072 0.0039,-0.324689 -0.05877,-0.646821 -0.184059,-0.946904 -0.125344,-0.300085 -0.310742,-0.57197 -0.545048,-0.79927 z m -0.524948,2.328253 c -0.07322,0.172608 -0.179734,0.32944 -0.313484,0.46179 -0.27956,0.269813 -0.654558,0.420859 -1.045086,0.420921 -0.195385,0.0014 -0.388945,-0.03715 -0.56868,-0.113042 -0.16944,-0.07249 -0.322373,-0.178028 -0.449607,-0.310254 -0.128817,-0.13302 -0.229555,-0.289974 -0.296552,-0.461851 -0.06968,-0.185336 -0.104278,-0.38188 -0.102018,-0.579643 -0.0022,-0.199223 0.03496,-0.396924 0.109332,-0.582017 0.06956,-0.172242 0.17279,-0.329197 0.303797,-0.461851 0.130826,-0.131861 0.288146,-0.235096 0.461791,-0.303006 0.365984,-0.144225 0.77387,-0.144225 1.139793,0 0.173705,0.0679 0.330962,0.171145 0.46179,0.303006 0.131191,0.133021 0.235158,0.289792 0.306237,0.461851 0.07425,0.185155 0.111395,0.382857 0.109385,0.582017 0.0022,0.199956 -0.03745,0.398143 -0.116695,0.582079 z"
      fill="#231f20"
      id="path10"
      style="stroke-width:0.609056" />
   <path
      d="m 72.183918,33.949758 h -1.151973 v 3.056992 h 3.001447 v 1.625948 h 1.151974 v -4.68294 h -1.151974 v 2.082923 h -1.849474 z"
      fill="#231f20"
      id="path12"
      style="stroke-width:0.609056" />
   <path
      d="m 80.772883,33.949758 h -1.283168 l -1.796057,2.330628 v -2.330628 h -1.164157 v 4.68294 h 1.164157 v -2.234459 l 1.730401,2.234459 h 1.426601 l -1.932122,-2.39318 z"
      fill="#231f20"
      id="path14"
      style="stroke-width:0.609056" />
   <path
      d="m 85.003595,33.947382 v 0.548336 l -0.165238,-0.134663 c -0.184422,-0.154762 -0.391808,-0.280473 -0.614907,-0.372805 -0.262017,-0.10342 -0.541758,-0.155676 -0.823875,-0.153911 -0.332547,-0.0026 -0.662535,0.0578 -0.972119,0.177969 -0.293325,0.115538 -0.560216,0.288085 -0.785019,0.507467 -0.22785,0.226998 -0.410079,0.49474 -0.537129,0.788917 -0.133141,0.31123 -0.201721,0.645787 -0.201721,0.983754 0,0.337967 0.06857,0.672462 0.201721,0.983692 0.12711,0.293505 0.309402,0.560396 0.537129,0.786539 0.225293,0.219324 0.49206,0.3926 0.785019,0.509846 0.309584,0.120166 0.639572,0.180586 0.972119,0.178027 0.281993,3.05e-4 0.561491,-0.05189 0.823875,-0.153971 0.22316,-0.09324 0.430485,-0.219809 0.614907,-0.37518 l 0.165238,-0.134725 v 0.570082 h 1.190894 v -4.709374 z m -0.121508,2.900647 c -0.06846,0.175349 -0.173641,0.334374 -0.308671,0.466601 -0.136367,0.132594 -0.296187,0.239422 -0.471473,0.315067 -0.186798,0.07815 -0.387789,0.117426 -0.590544,0.115478 -0.197582,0.0022 -0.393574,-0.03552 -0.575989,-0.110666 -0.173155,-0.07205 -0.329439,-0.178456 -0.459353,-0.31263 -0.129912,-0.133994 -0.233758,-0.290522 -0.306233,-0.461851 -0.152144,-0.364218 -0.152144,-0.773385 0,-1.137601 0.07523,-0.174314 0.182289,-0.33334 0.315979,-0.469038 0.130521,-0.133445 0.286685,-0.239788 0.459292,-0.312692 0.373658,-0.152326 0.792934,-0.152326 1.166594,0 0.175288,0.07571 0.335042,0.182476 0.471471,0.315067 0.135517,0.131862 0.240762,0.291009 0.308673,0.466663 0.136124,0.358126 0.136124,0.753041 0,1.111168 z"
      fill="#231f20"
      id="path16"
      style="stroke-width:0.609056" />
   <path
      d="m 94.203412,33.949758 h -1.142294 v 4.68294 h 1.198204 l 2.170263,-3.105111 v 3.105111 h 1.144732 v -4.68294 h -1.200644 l -2.170261,3.105108 z"
      fill="#231f20"
      id="path18"
      style="stroke-width:0.609056" />
   <path
      d="m 99.955621,38.632698 h 1.154469 v -3.708809 h 1.45578 v -0.974131 h -4.066029 v 0.974131 h 1.45578 z"
      fill="#231f20"
      id="path20"
      style="stroke-width:0.609056" />
   <path
      d="m 104.60269,33.949758 h -1.14475 v 4.68294 h 1.20065 l 2.17013,-3.105111 v 3.105111 h 1.14261 v -4.68294 h -1.20107 l -2.16757,3.105108 z"
      fill="#231f20"
      id="path22"
      style="stroke-width:0.609056" />
   <path
      d="m 90.319495,34.950321 c 0.177969,0.06638 0.339551,0.169745 0.47391,0.303006 0.09952,0.105186 0.181563,0.225354 0.243016,0.355996 l 1.091253,-0.319879 c -0.125345,-0.277303 -0.303616,-0.527994 -0.524949,-0.738423 -0.234488,-0.223099 -0.50893,-0.400945 -0.80932,-0.524339 -0.663387,-0.256597 -1.400045,-0.256597 -2.063373,0 -0.304467,0.121203 -0.582503,0.29923 -0.819063,0.524339 -0.229676,0.22322 -0.413004,0.48877 -0.539503,0.781667 -0.131742,0.303921 -0.198798,0.631413 -0.19685,0.962132 -0.0014,0.330111 0.06395,0.657176 0.191976,0.96207 0.125099,0.293691 0.308609,0.559545 0.539566,0.781669 0.238263,0.224012 0.518006,0.400395 0.823874,0.519528 0.663876,0.253796 1.399499,0.253796 2.063373,0 0.304715,-0.122055 0.58342,-0.299962 0.821442,-0.52434 0.214936,-0.207262 0.389553,-0.451861 0.515264,-0.721553 l -1.096126,-0.322315 c -0.06755,0.125711 -0.153544,0.240823 -0.255196,0.341562 -0.208969,0.202024 -0.473301,0.338879 -0.760169,0.393574 -0.286867,0.05475 -0.583662,0.02497 -0.853596,-0.0857 -0.170112,-0.07241 -0.323838,-0.177966 -0.452045,-0.310316 -0.128023,-0.133017 -0.227971,-0.290033 -0.294053,-0.461786 -0.07048,-0.185216 -0.105856,-0.381699 -0.104519,-0.579644 -0.002,-0.199163 0.03516,-0.396863 0.109387,-0.582018 0.07042,-0.172364 0.174497,-0.329319 0.306235,-0.46185 0.130766,-0.131862 0.288086,-0.235097 0.46173,-0.303007 0.363608,-0.137952 0.766561,-0.134542 1.127733,0.0096 z"
      fill="#231f20"
      id="path24"
      style="stroke-width:0.609056" />
</svg>