<svg version="1.1" xmlns="http://www.w3.org/2000/svg" xmlns:xlink="http://www.w3.org/1999/xlink">
    <symbol id="logo" viewBox="0 0 109 75" fill="none">
        <path d="M37.8922 75C58.8195 75 75.7844 58.2107 75.7844 37.5C75.7844 16.7893 58.8195 0 37.8922 0C16.9649 0 0 16.7893 0 37.5C0 58.2107 16.9649 75 37.8922 75Z" fill="#9D1D86" />
        <path d="M37.8924 62.2801C51.7212 62.2801 62.9317 51.1856 62.9317 37.4999C62.9317 23.8142 51.7212 12.7197 37.8924 12.7197C24.0635 12.7197 12.853 23.8142 12.853 37.4999C12.853 51.1856 24.0635 62.2801 37.8924 62.2801Z" fill="black" />
        <path d="M94.9781 27.5878V13.7109H66.938V61.2889H109L108.992 27.5878H94.9781Z" fill="black" />
        <path d="M19.1856 41.4688H21.081V35.3794H23.4712V33.78H16.7954V35.3794H19.1856V41.4688Z" fill="white" />
        <path d="M31.5436 34.7672C31.1507 34.3996 30.6919 34.1077 30.1909 33.9063C29.1018 33.485 27.8922 33.485 26.8031 33.9063C26.3047 34.1058 25.8496 34.3981 25.4624 34.7672C25.0794 35.1417 24.7762 35.5884 24.5706 36.0808C24.365 36.5732 24.2612 37.1014 24.2653 37.6342C24.2612 38.1764 24.3684 38.7138 24.5805 39.2138C24.7844 39.6959 25.0843 40.1324 25.4624 40.4973C25.8536 40.8651 26.3129 41.1547 26.8151 41.3503C27.9051 41.767 29.1129 41.767 30.2029 41.3503C30.7039 41.1489 31.1626 40.857 31.5556 40.4894C31.9349 40.1261 32.2386 39.6927 32.4494 39.2138C32.6657 38.7149 32.7758 38.1771 32.7726 37.6342C32.779 37.1011 32.6762 36.5722 32.4705 36.0795C32.2647 35.5868 31.9603 35.1404 31.5755 34.7672H31.5436ZM30.6817 38.5899C30.5614 38.8733 30.3866 39.1308 30.167 39.3481C29.708 39.7911 29.0922 40.0391 28.4511 40.0392C28.1303 40.0414 27.8125 39.9782 27.5174 39.8536C27.2392 39.7346 26.9881 39.5613 26.7792 39.3442C26.5677 39.1258 26.4023 38.8681 26.2923 38.5859C26.1779 38.2816 26.1211 37.9589 26.1248 37.6342C26.1212 37.3071 26.1821 36.9825 26.3043 36.6786C26.4185 36.3958 26.588 36.1381 26.8031 35.9203C27.0179 35.7038 27.2761 35.5343 27.5613 35.4228C28.1622 35.186 28.8318 35.186 29.4327 35.4228C29.7178 35.5343 29.9761 35.7038 30.1909 35.9203C30.4063 36.1387 30.577 36.3961 30.6937 36.6786C30.8155 36.9826 30.8765 37.3072 30.8732 37.6342C30.877 37.9625 30.8118 38.2879 30.6817 38.5899Z" fill="white" />
        <path d="M35.9891 33.78H34.0977V38.7992H39.0257V41.4688H40.9171V33.78H39.0257V37.1999H35.9891V33.78Z" fill="white" />
        <path d="M50.0907 33.78H47.9838L45.0349 37.6066V33.78H43.1235V41.4688H45.0349V37.8001L47.876 41.4688H50.2183L47.046 37.5395L50.0907 33.78Z" fill="white" />
        <path d="M57.0379 33.7761V34.6764L56.7666 34.4553C56.4638 34.2012 56.1233 33.9948 55.757 33.8432C55.3268 33.6734 54.8675 33.5876 54.4043 33.5905C53.8583 33.5863 53.3165 33.6854 52.8082 33.8827C52.3266 34.0724 51.8883 34.3557 51.5193 34.7159C51.1452 35.0886 50.846 35.5282 50.6374 36.0112C50.4188 36.5222 50.3062 37.0715 50.3062 37.6264C50.3062 38.1813 50.4188 38.7305 50.6374 39.2415C50.8461 39.7234 51.1453 40.1616 51.5193 40.5329C51.8892 40.893 52.3272 41.1775 52.8082 41.37C53.3165 41.5673 53.8583 41.6665 54.4043 41.6623C54.8673 41.6628 55.3262 41.5771 55.757 41.4095C56.1234 41.2564 56.4638 41.0486 56.7666 40.7935L57.0379 40.5723V41.5083H58.9932V33.7761H57.0379ZM56.8384 38.5386C56.726 38.8265 56.5533 39.0876 56.3316 39.3047C56.1076 39.5224 55.8453 39.6978 55.5575 39.822C55.2508 39.9503 54.9208 40.0148 54.5879 40.0116C54.2634 40.0151 53.9417 39.9533 53.6422 39.8299C53.3579 39.7116 53.1012 39.5369 52.888 39.3166C52.6746 39.0966 52.5042 38.8396 52.3852 38.5583C52.1353 37.9603 52.1353 37.2885 52.3852 36.6905C52.5087 36.4043 52.6845 36.1432 52.9039 35.9204C53.1183 35.7013 53.3747 35.5267 53.6581 35.407C54.2716 35.1569 54.96 35.1569 55.5735 35.407C55.8612 35.5313 56.1236 35.7066 56.3476 35.9243C56.5701 36.1408 56.7429 36.4021 56.8544 36.6905C57.0779 37.2785 57.0779 37.9269 56.8544 38.5149L56.8384 38.5386Z" fill="white" />
        <path d="M82.4443 33.78H80.5688V41.4688H82.5361L86.0994 36.3706V41.4688H87.9789V33.78H86.0077L82.4443 38.8782V33.78Z" fill="white" />
        <path d="M91.8892 41.4688H93.7847V35.3794H96.1749V33.78H89.499V35.3794H91.8892V41.4688Z" fill="white" />
        <path d="M99.5191 33.78H97.6396V41.4688H99.6109L103.174 36.3706V41.4688H105.05V33.78H103.078L99.5191 38.8782V33.78Z" fill="white" />
        <path d="M76.0679 35.4228C76.3601 35.5318 76.6254 35.7015 76.846 35.9203C77.0094 36.093 77.1441 36.2903 77.245 36.5048L79.0367 35.9796C78.8309 35.5243 78.5382 35.1127 78.1748 34.7672C77.7898 34.4009 77.3392 34.1089 76.846 33.9063C75.7568 33.485 74.5473 33.485 73.4582 33.9063C72.9583 34.1053 72.5018 34.3976 72.1134 34.7672C71.7363 35.1337 71.4353 35.5697 71.2276 36.0506C71.0113 36.5496 70.9012 37.0873 70.9044 37.6303C70.9022 38.1723 71.0094 38.7093 71.2196 39.2099C71.425 39.6921 71.7263 40.1286 72.1055 40.4933C72.4967 40.8611 72.956 41.1507 73.4582 41.3463C74.5482 41.763 75.756 41.763 76.846 41.3463C77.3463 41.1459 77.8039 40.8538 78.1947 40.4854C78.5476 40.1451 78.8343 39.7435 79.0407 39.3007L77.241 38.7715C77.1301 38.9779 76.9889 39.1669 76.822 39.3323C76.4789 39.664 76.0449 39.8887 75.5739 39.9785C75.1029 40.0684 74.6156 40.0195 74.1724 39.8378C73.8931 39.7189 73.6407 39.5456 73.4302 39.3283C73.22 39.1099 73.0559 38.8521 72.9474 38.5701C72.8317 38.266 72.7736 37.9434 72.7758 37.6184C72.7725 37.2914 72.8335 36.9668 72.9554 36.6628C73.071 36.3798 73.2419 36.1221 73.4582 35.9045C73.6729 35.688 73.9312 35.5185 74.2163 35.407C74.8133 35.1805 75.4749 35.1861 76.0679 35.4228Z" fill="white" />
    </symbol>
    <!-- START change logo-light -->
    <symbol id="logo-light" viewBox="0 0 109 75" fill="none">
        <path
            d="M 37.892202,75 C 58.819499,75 75.7844,58.2107 75.7844,37.5 75.7844,16.7893 58.819499,0 37.892202,0 16.9649,0 0,16.7893 0,37.5 0,58.2107 16.9649,75 37.892202,75 Z"
            fill="#9d1d86"
            id="path2"
            style="stroke-width:0.999992;fill:none" />
        <path
            d="m 11.081119,44.608425 c 5.735731,0 10.385518,-4.601634 10.385518,-10.278012 0,-5.676376 -4.649787,-10.27801 -10.385518,-10.27801 -5.7357706,0 -10.3855171,4.601634 -10.3855171,10.27801 0,5.676378 4.6497465,10.278012 10.3855171,10.278012 z"
            fill="#ffffff"
            id="path4"
            style="fill:#ffffff;stroke-width:0.414765" />
        <path
            d="M 36.336523,29.92769 V 24.172008 H 24.706419 v 19.733788 h 17.44614 l -0.0033,-13.978106 z"
            fill="#ffffff"
            id="path6"
            style="fill:#ffffff;stroke-width:0.414765" />
        <path
            d="m 48.266595,37.242267 h 1.507 v -4.841576 h 1.900487 V 31.129036 H 46.36619 v 1.271655 h 1.900405 z"
            fill="#231f20"
            id="path8"
            style="fill:#ffffff;stroke-width:0.795078" />
        <path
            d="m 58.092228,31.913939 c -0.312386,-0.292272 -0.677171,-0.524356 -1.075506,-0.684485 -0.865925,-0.334968 -1.827578,-0.334968 -2.693582,0 -0.396268,0.158622 -0.758114,0.39102 -1.065968,0.684485 -0.304517,0.297758 -0.545587,0.652922 -0.709054,1.044423 -0.163468,0.391499 -0.246001,0.811459 -0.242738,1.235079 -0.0034,0.431095 0.08198,0.858373 0.250609,1.255914 0.162118,0.38331 0.400642,0.730364 0.701183,1.020489 0.311038,0.292432 0.676216,0.522686 1.075508,0.678204 0.866641,0.331311 1.82694,0.331311 2.693582,0 0.398336,-0.160128 0.763041,-0.392214 1.07551,-0.684489 0.301572,-0.288852 0.543041,-0.63344 0.710642,-1.014204 0.172052,-0.396667 0.259515,-0.824263 0.257054,-1.255914 0.0051,-0.423859 -0.07673,-0.844376 -0.240277,-1.236113 -0.163623,-0.39174 -0.405651,-0.746665 -0.71152,-1.043389 z m -0.685279,3.039364 c -0.09559,0.225327 -0.234629,0.430058 -0.40923,0.602832 -0.364947,0.352221 -0.854478,0.549399 -1.364284,0.54948 -0.25506,0.0019 -0.507738,-0.04849 -0.74237,-0.147563 -0.221189,-0.09463 -0.420832,-0.232401 -0.586929,-0.405012 -0.168158,-0.173648 -0.299666,-0.37854 -0.387126,-0.602911 -0.09097,-0.241944 -0.136123,-0.498518 -0.133182,-0.756683 -0.003,-0.260071 0.04564,-0.518154 0.142718,-0.75978 0.09081,-0.224849 0.225564,-0.429742 0.396585,-0.602912 0.170791,-0.17214 0.376153,-0.306901 0.602833,-0.395551 0.477767,-0.188276 1.01023,-0.188276 1.487916,0 0.22676,0.08862 0.432048,0.223415 0.602832,0.395551 0.171258,0.173648 0.306982,0.378303 0.399771,0.602912 0.09691,0.241705 0.145417,0.499792 0.142788,0.75978 0.003,0.261027 -0.04889,0.519748 -0.152342,0.759861 z"
            fill="#231f20"
            id="path10"
            style="fill:#ffffff;stroke-width:0.795078" />
        <path
            d="M 61.627165,31.129036 H 60.12335 v 3.990677 h 3.918168 v 2.122554 h 1.503815 v -6.113231 h -1.503815 v 2.7191 h -2.414353 z"
            fill="#231f20"
            id="path12"
            style="fill:#ffffff;stroke-width:0.795078" />
        <path
            d="m 72.839425,31.129036 h -1.67508 l -2.34462,3.042463 v -3.042463 h -1.519722 v 6.113231 h 1.519722 v -2.916921 l 2.258908,2.916921 h 1.862325 l -2.522243,-3.124119 z"
            fill="#231f20"
            id="path14"
            style="fill:#ffffff;stroke-width:0.795078" />
        <path
            d="m 78.362308,31.125933 v 0.715814 l -0.215706,-0.175795 c -0.24075,-0.20203 -0.511478,-0.366135 -0.802716,-0.486669 -0.342044,-0.135015 -0.707227,-0.203222 -1.075509,-0.200919 -0.434115,-0.0035 -0.864891,0.07547 -1.269029,0.232325 -0.382916,0.150834 -0.731321,0.376075 -1.024785,0.662462 -0.297442,0.296329 -0.535328,0.645847 -0.701181,1.029872 -0.173807,0.406287 -0.263333,0.843027 -0.263333,1.284219 0,0.44119 0.08951,0.877849 0.263333,1.284137 0.165926,0.383149 0.403901,0.731554 0.701181,1.026768 0.294104,0.286312 0.642348,0.512511 1.024785,0.665565 0.404138,0.156876 0.834914,0.235743 1.269029,0.232403 0.368122,3.99e-4 0.732986,-0.06775 1.075509,-0.200997 0.291317,-0.121723 0.561966,-0.286946 0.802716,-0.48977 l 0.215706,-0.175873 v 0.744198 h 1.554623 v -6.14774 z m -0.158624,3.786581 c -0.08939,0.228906 -0.226675,0.436502 -0.402945,0.609113 -0.178016,0.173092 -0.386651,0.312547 -0.615474,0.411297 -0.243852,0.102023 -0.506229,0.153292 -0.770912,0.150748 -0.257928,0.003 -0.513781,-0.04637 -0.75191,-0.144466 -0.226042,-0.09405 -0.430059,-0.232961 -0.599652,-0.408113 -0.169596,-0.17492 -0.305154,-0.379256 -0.399764,-0.602914 -0.198613,-0.475459 -0.198613,-1.009596 0,-1.485054 0.09821,-0.227555 0.237965,-0.435151 0.412487,-0.612294 0.170391,-0.174203 0.374245,-0.313026 0.599573,-0.408195 0.48778,-0.19885 1.035116,-0.19885 1.522901,0 0.228825,0.09883 0.437372,0.238208 0.61547,0.411296 0.176907,0.172139 0.314297,0.37989 0.402949,0.609193 0.1777,0.467508 0.1777,0.98304 0,1.450548 z"
            fill="#231f20"
            id="path16"
            style="fill:#ffffff;stroke-width:0.795078" />
        <path
            d="m 90.371989,31.129036 h -1.491181 v 6.113231 h 1.564167 l 2.833118,-4.053491 v 4.053491 h 1.494363 v -6.113231 h -1.567352 l -2.833115,4.05349 z"
            fill="#231f20"
            id="path18"
            style="fill:#ffffff;stroke-width:0.795078" />
        <path
            d="m 97.881072,37.242267 h 1.50708 v -4.841576 h 1.900408 v -1.271655 h -5.307902 v 1.271655 h 1.900414 z"
            fill="#231f20"
            id="path20"
            style="fill:#ffffff;stroke-width:0.795078" />
        <path
            d="m 103.94747,31.129036 h -1.49438 v 6.113231 h 1.56735 l 2.83295,-4.053491 v 4.053491 h 1.49159 v -6.113231 h -1.56791 l -2.8296,4.05349 z"
            fill="#231f20"
            id="path22"
            style="fill:#ffffff;stroke-width:0.795078" />
        <path
            d="m 85.301822,32.435196 c 0.232325,0.08666 0.443259,0.22159 0.618653,0.395554 0.129911,0.137317 0.237019,0.294182 0.31724,0.464726 l 1.424551,-0.417581 c -0.163625,-0.361997 -0.396349,-0.689256 -0.685282,-0.963956 -0.306108,-0.291239 -0.664371,-0.523404 -1.056509,-0.684485 -0.866003,-0.334968 -1.827656,-0.334968 -2.69358,0 -0.397459,0.158224 -0.760415,0.390622 -1.069227,0.684485 -0.299824,0.291399 -0.539145,0.638054 -0.704279,1.020409 -0.171985,0.396746 -0.259517,0.824264 -0.256975,1.255993 -0.0019,0.430936 0.08348,0.857894 0.250609,1.255911 0.163314,0.383391 0.402866,0.730445 0.704365,1.020412 0.311036,0.29243 0.676219,0.522685 1.075507,0.678205 0.866642,0.331313 1.826943,0.331313 2.69358,0 0.397784,-0.159332 0.761613,-0.391579 1.072334,-0.684488 0.280582,-0.270565 0.508532,-0.589872 0.672638,-0.941933 l -1.43091,-0.420759 c -0.08818,0.164108 -0.200442,0.314377 -0.333142,0.445885 -0.272793,0.263726 -0.617858,0.44238 -0.992344,0.513779 -0.374483,0.07148 -0.761927,0.0326 -1.114306,-0.111874 -0.222069,-0.09453 -0.422747,-0.232321 -0.590112,-0.405094 -0.16712,-0.173643 -0.297599,-0.378617 -0.383865,-0.602828 -0.092,-0.241786 -0.138182,-0.498279 -0.136435,-0.756682 -0.0027,-0.259993 0.04589,-0.518076 0.142804,-0.759782 0.09194,-0.225009 0.227795,-0.429901 0.399767,-0.60291 0.170704,-0.17214 0.376077,-0.306902 0.602755,-0.395556 0.474664,-0.180083 1.000688,-0.175633 1.472171,0.01246 z"
            fill="#231f20"
            id="path24"
            style="fill:#ffffff;stroke-width:0.795078" />
    </symbol>
    <!-- END change logo-light -->
    <symbol id="logo-footer" viewBox="0 0 120 84" fill="none">
        <path d="M41.7162 84C64.7554 84 83.4324 65.196 83.4324 42C83.4324 18.804 64.7554 0 41.7162 0C18.677 0 0 18.804 0 42C0 65.196 18.677 84 41.7162 84Z" fill="#6DC4BC" />
        <path d="M41.7167 69.7537C56.9411 69.7537 69.2829 57.3279 69.2829 41.9999C69.2829 26.6719 56.9411 14.2461 41.7167 14.2461C26.4922 14.2461 14.1504 26.6719 14.1504 41.9999C14.1504 57.3279 26.4922 69.7537 41.7167 69.7537Z" fill="black" />
        <path d="M104.563 30.8986V15.3564H73.6934V68.6437H120L119.992 30.8986H104.563Z" fill="black" />
        <path d="M21.1217 46.4449H23.2084V39.6248H25.8398V37.8335H18.4902V39.6248H21.1217V46.4449Z" fill="white" />
        <path d="M34.7269 38.9392C34.2943 38.5275 33.7892 38.2005 33.2376 37.975C32.0386 37.5031 30.707 37.5031 29.508 37.975C28.9592 38.1985 28.4582 38.5258 28.0319 38.9392C27.6103 39.3587 27.2765 39.8589 27.0502 40.4104C26.8238 40.962 26.7095 41.5535 26.714 42.1502C26.7095 42.7575 26.8276 43.3594 27.061 43.9194C27.2856 44.4593 27.6158 44.9482 28.0319 45.3569C28.4626 45.7688 28.9683 46.0932 29.5211 46.3122C30.7211 46.7789 32.0508 46.7789 33.2508 46.3122C33.8024 46.0867 34.3074 45.7597 34.7401 45.348C35.1577 44.9411 35.492 44.4558 35.7241 43.9194C35.9622 43.3606 36.0834 42.7583 36.0799 42.1502C36.0869 41.5532 35.9738 40.9608 35.7473 40.409C35.5208 39.8571 35.1856 39.3571 34.762 38.9392H34.7269ZM33.778 43.2206C33.6456 43.538 33.4531 43.8264 33.2113 44.0698C32.706 44.5659 32.0281 44.8437 31.3223 44.8438C30.9691 44.8462 30.6192 44.7755 30.2943 44.6359C29.9881 44.5027 29.7117 44.3086 29.4816 44.0654C29.2488 43.8208 29.0667 43.5322 28.9456 43.2162C28.8197 42.8753 28.7572 42.5139 28.7611 42.1502C28.7572 41.7839 28.8243 41.4203 28.9588 41.0799C29.0845 40.7632 29.2711 40.4746 29.508 40.2307C29.7444 39.9882 30.0287 39.7983 30.3426 39.6734C31.0042 39.4083 31.7414 39.4083 32.403 39.6734C32.7169 39.7983 33.0012 39.9882 33.2376 40.2307C33.4747 40.4752 33.6627 40.7636 33.7912 41.0799C33.9253 41.4204 33.9925 41.7839 33.9889 42.1502C33.993 42.5179 33.9212 42.8824 33.778 43.2206Z" fill="white" />
        <path d="M39.6204 37.8335H37.5381V43.455H42.9635V46.4449H45.0458V37.8335H42.9635V41.6637H39.6204V37.8335Z" fill="white" />
        <path d="M55.1458 37.8335H52.8263L49.5798 42.1193V37.8335H47.4756V46.4449H49.5798V42.336L52.7077 46.4449H55.2864L51.7939 42.0441L55.1458 37.8335Z" fill="white" />
        <path d="M62.7939 37.8291V38.8375L62.4952 38.5899C62.1618 38.3053 61.787 38.0741 61.3838 37.9043C60.9101 37.7141 60.4044 37.618 59.8945 37.6212C59.2934 37.6165 58.697 37.7276 58.1373 37.9485C57.6072 38.161 57.1247 38.4784 56.7184 38.8818C56.3066 39.2992 55.9771 39.7915 55.7475 40.3325C55.5068 40.9048 55.3828 41.52 55.3828 42.1415C55.3828 42.763 55.5068 43.3781 55.7475 43.9504C55.9772 44.4901 56.3067 44.9809 56.7184 45.3967C57.1256 45.8001 57.6078 46.1187 58.1373 46.3344C58.697 46.5553 59.2934 46.6664 59.8945 46.6617C60.4042 46.6623 60.9094 46.5663 61.3838 46.3786C61.7871 46.2071 62.1619 45.9744 62.4952 45.6886L62.7939 45.4409V46.4892H64.9465V37.8291H62.7939ZM62.5743 43.1631C62.4505 43.4856 62.2604 43.778 62.0164 44.0212C61.7698 44.265 61.4809 44.4614 61.1641 44.6006C60.8265 44.7442 60.4631 44.8165 60.0966 44.8129C59.7395 44.8168 59.3852 44.7476 59.0555 44.6094C58.7426 44.477 58.46 44.2813 58.2252 44.0345C57.9903 43.7881 57.8027 43.5002 57.6717 43.1853C57.3966 42.5154 57.3966 41.7631 57.6717 41.0932C57.8076 40.7727 58.0012 40.4803 58.2428 40.2308C58.4787 39.9854 58.761 39.7899 59.0731 39.6558C59.7484 39.3756 60.5064 39.3756 61.1817 39.6558C61.4985 39.795 61.7873 39.9913 62.034 40.2352C62.2789 40.4776 62.4692 40.7702 62.5919 41.0932C62.838 41.7518 62.838 42.478 62.5919 43.1366L62.5743 43.1631Z" fill="white" />
        <path d="M90.7639 37.8335H88.6992V46.4449H90.865L94.788 40.7349V46.4449H96.8571V37.8335H94.6869L90.7639 43.5435V37.8335Z" fill="white" />
        <path d="M101.163 46.4449H103.249V39.6248H105.881V37.8335H98.5312V39.6248H101.163V46.4449Z" fill="white" />
        <path d="M109.562 37.8335H107.493V46.4449H109.663L113.586 40.7349V46.4449H115.651V37.8335H113.481L109.562 43.5435V37.8335Z" fill="white" />
        <path d="M83.7442 39.6734C84.066 39.7956 84.358 39.9856 84.6009 40.2307C84.7808 40.4241 84.9291 40.6451 85.0402 40.8853L87.0126 40.297C86.7861 39.7872 86.4639 39.3261 86.0638 38.9392C85.64 38.5289 85.1439 38.2019 84.6009 37.975C83.4018 37.5031 82.0702 37.5031 80.8712 37.975C80.3209 38.1979 79.8183 38.5252 79.3907 38.9392C78.9755 39.3496 78.6442 39.838 78.4155 40.3766C78.1773 40.9355 78.0562 41.5377 78.0596 42.1458C78.0573 42.7529 78.1753 43.3544 78.4067 43.915C78.6329 44.4551 78.9645 44.9439 79.3819 45.3524C79.8127 45.7644 80.3184 46.0888 80.8712 46.3078C82.0712 46.7745 83.4009 46.7745 84.6009 46.3078C85.1517 46.0833 85.6554 45.7562 86.0857 45.3436C86.4742 44.9624 86.7899 44.5126 87.017 44.0167L85.0358 43.424C84.9136 43.6552 84.7582 43.8668 84.5745 44.0521C84.1967 44.4236 83.7189 44.6752 83.2004 44.7759C82.6819 44.8765 82.1454 44.8217 81.6575 44.6182C81.35 44.4851 81.0721 44.291 80.8404 44.0477C80.609 43.803 80.4283 43.5143 80.3089 43.1985C80.1815 42.8578 80.1175 42.4965 80.12 42.1325C80.1163 41.7662 80.1835 41.4027 80.3177 41.0622C80.4449 40.7453 80.633 40.4567 80.8712 40.213C81.1076 39.9705 81.392 39.7806 81.7059 39.6557C82.3631 39.4021 83.0914 39.4084 83.7442 39.6734Z" fill="white" />
    </symbol>
    <symbol id="logo-small" viewBox="0 0 39 20" fill="none">
        <path d="M19.6883 10C19.6883 14.9389 15.5369 19 10.3441 19C5.15135 19 1 14.9389 1 10C1 5.06106 5.15135 1 10.3441 1C15.5369 1 19.6883 5.06106 19.6883 10Z" stroke-width="2" />
        <path d="M32.3397 5.48266V6.48266H33.3397H37.9972L38.0007 19H23.001V1H32.3397V5.48266Z" stroke-width="2" />
    </symbol>
    <symbol id="logo-crossroads" viewBox="0 0 24 24" stroke="none">
        <path d="M11.0766 23.9183C10.8107 23.8681 10.5496 23.7953 10.2962 23.7007C9.52516 23.413 8.84752 22.9202 8.33644 22.2758C8.10839 21.9935 7.91885 21.6823 7.77277 21.3503C7.66066 21.0889 7.57217 20.818 7.50837 20.5408C7.38314 20.025 7.38819 19.5041 7.42568 18.9838C7.44611 18.7026 7.5139 18.4252 7.59394 18.1512C7.72016 17.7318 7.90827 17.3335 8.15207 16.9695C8.38523 16.6156 8.66862 16.2986 8.96572 15.9958C9.68322 15.2663 10.3793 14.5139 11.1204 13.8077C11.3646 13.575 11.6071 13.3409 11.8799 13.1399C11.9456 13.0918 11.984 13.0854 12.0458 13.1468C12.3285 13.4271 12.6123 13.7066 12.9032 13.9784C13.4632 14.5019 13.9957 15.0537 14.5523 15.5804C14.7867 15.8018 15.0273 16.0172 15.2465 16.2527C15.6652 16.7035 16.014 17.2044 16.2493 17.7747C16.3399 18.0041 16.4112 18.2407 16.4625 18.4819C16.576 18.9775 16.5827 19.4772 16.5505 19.9794C16.5315 20.2831 16.4616 20.5778 16.3717 20.8695C16.2668 21.2111 16.1195 21.5382 15.9333 21.8433C15.6585 22.2962 15.3064 22.6768 14.8941 23.0098C14.3778 23.4265 13.7728 23.7194 13.1255 23.8662C12.9564 23.9064 12.7853 23.9376 12.6128 23.9598C12.1017 24.025 11.5835 24.011 11.0766 23.9183ZM12.0198 22.038C12.3433 22.0425 12.6649 21.9881 12.9688 21.8774C13.164 21.8053 13.7488 21.5678 14.1466 21.0071C14.387 20.6673 14.5283 20.2925 14.5925 19.8763C14.6507 19.4993 14.6105 19.1355 14.5216 18.7784C14.4163 18.3553 14.1829 17.986 13.8829 17.6738C13.2878 17.0548 12.6751 16.4525 12.072 15.8409C11.9927 15.7605 11.9484 15.8001 11.8876 15.8613C11.479 16.2727 11.0651 16.6778 10.6606 17.0922C10.363 17.3977 10.0481 17.6849 9.80196 18.0415C9.50919 18.4656 9.37987 18.9331 9.35608 19.4343C9.33997 19.7784 9.40415 20.1148 9.52674 20.4414C9.69031 20.8908 9.98925 21.2785 10.3824 21.5513C10.8603 21.888 11.4354 22.059 12.0198 22.038Z" />
        <path d="M23.9232 12.8649C23.8847 13.0731 23.8328 13.2785 23.7677 13.4799C23.6659 13.7973 23.5311 14.1031 23.3656 14.3924C23.1041 14.8397 22.7663 15.2379 22.3676 15.5691C22.0105 15.8684 21.6076 16.1083 21.1741 16.2796C20.8469 16.4098 20.5052 16.5004 20.1564 16.5493C19.9067 16.5854 19.6539 16.5964 19.4019 16.5822C19.1394 16.5664 18.8748 16.57 18.6162 16.5118C18.3758 16.4578 18.1333 16.4033 17.9027 16.3147C17.5043 16.1622 17.1282 15.9566 16.7848 15.7036C16.4438 15.4529 16.128 15.1698 15.8418 14.8581C15.3063 14.2724 14.728 13.7294 14.1864 13.1485C13.8469 12.785 13.4987 12.43 13.142 12.0836C13.0629 12.0069 13.1004 11.9635 13.155 11.908C13.9694 11.0738 14.7861 10.242 15.5962 9.40367C15.9041 9.08429 16.2062 8.75867 16.5531 8.47795C16.8994 8.1933 17.2826 7.95656 17.6922 7.77412C18.0719 7.60444 18.476 7.49545 18.8897 7.45114C19.3416 7.40504 19.7971 7.39639 20.2521 7.47275C20.5344 7.51907 20.8121 7.58977 21.0821 7.68407C21.4129 7.80332 21.7271 7.96423 22.0171 8.1629C22.3536 8.39006 22.6471 8.66718 22.9122 8.97503C23.2024 9.31645 23.4399 9.69919 23.617 10.1106C23.7391 10.3884 23.8319 10.6781 23.8939 10.9751C23.9244 11.1192 23.9432 11.244 23.955 11.3382C24.0245 11.8456 24.0138 12.3608 23.9232 12.8649ZM22.0335 11.9484C22.0601 11.72 21.9986 11.4508 21.9239 11.1895C21.8384 10.8867 21.6947 10.6033 21.5008 10.3553C21.3152 10.12 21.104 9.90578 20.8465 9.74994C20.5323 9.56201 20.1828 9.44048 19.8197 9.39286C19.4574 9.34099 19.1096 9.38566 18.7685 9.46922C18.3664 9.56792 18.0124 9.78428 17.7109 10.0672C17.0658 10.6737 16.448 11.3086 15.8231 11.9359C15.7611 11.9983 15.7779 12.024 15.8272 12.0723C16.006 12.2476 16.1779 12.4298 16.3593 12.602C16.8581 13.0753 17.3131 13.5923 17.8407 14.0368C18.3003 14.4241 18.8318 14.6018 19.4185 14.6297C19.7632 14.6463 20.0968 14.5788 20.4232 14.4561C20.942 14.2611 21.3335 13.9165 21.6251 13.46C21.9082 13.0177 22.0438 12.5261 22.0335 11.9484Z" />
        <path d="M0.199375 10.5431C0.291755 10.2476 0.413843 9.96211 0.563772 9.69112C0.864711 9.1429 1.27261 8.68664 1.76633 8.30363C2.0779 8.06667 2.42007 7.87281 2.78356 7.72731C3.11893 7.5899 3.47098 7.49729 3.8306 7.45188C4.10472 7.41659 4.38152 7.40663 4.65747 7.4221C4.88438 7.43507 5.112 7.44612 5.33458 7.49006C5.58975 7.5383 5.84056 7.6072 6.08453 7.69609C6.46845 7.83916 6.83093 8.03412 7.16186 8.27554C7.49764 8.51929 7.8085 8.79558 8.08991 9.10039C8.65309 9.71417 9.2569 10.2888 9.82753 10.8949C10.1536 11.2415 10.4862 11.5815 10.8253 11.915C10.8897 11.9781 10.8909 12.0221 10.8253 12.0869C10.5494 12.3612 10.2724 12.6337 10.0061 12.918C9.4802 13.4816 8.92303 14.0145 8.39398 14.5749C8.17476 14.8072 7.96132 15.0444 7.72648 15.2615C7.27555 15.6796 6.77414 16.0266 6.20423 16.2621C5.97402 16.3531 5.73659 16.4245 5.49443 16.4758C4.96225 16.5981 4.42551 16.6038 3.88781 16.5575C3.58206 16.5311 3.28161 16.4542 2.99028 16.3524C2.65266 16.2364 2.33044 16.0797 2.03073 15.8858C1.62847 15.6203 1.27078 15.2929 0.970954 14.9157C0.732278 14.6173 0.533507 14.289 0.37965 13.9393C0.262406 13.6789 0.171341 13.4075 0.107795 13.1291C0.0580008 12.899 0.0265741 12.6654 0.013811 12.4303C-0.00460367 12.1665 -0.00460367 11.9017 0.013811 11.6379C0.0320789 11.3721 0.0602019 11.0006 0.199375 10.5431ZM1.93675 12.08C1.92401 12.456 2.03915 12.8724 2.23408 13.2691C2.40806 13.6174 2.6637 13.9185 2.97922 14.1468C3.32776 14.4042 3.72436 14.5514 4.16471 14.6078C4.52334 14.6537 4.86731 14.6139 5.20454 14.53C5.62879 14.4249 5.99776 14.1939 6.31168 13.8903C6.9263 13.296 7.52818 12.6897 8.13847 12.0893C8.21659 12.0127 8.18991 11.9661 8.12453 11.9015C7.72576 11.5101 7.33516 11.112 6.93615 10.7213C6.57247 10.3659 6.23716 9.97688 5.78744 9.71994C5.52303 9.56841 5.24541 9.45339 4.94615 9.41329C4.66732 9.37631 4.3885 9.34125 4.10174 9.39864C3.93228 9.43298 3.75922 9.46011 3.59865 9.5187C3.17317 9.67361 2.79946 9.94416 2.51964 10.2999C2.12352 10.7945 1.93555 11.3636 1.93675 12.0809V12.08Z" />
        <path d="M12.6251 0.0418281C13.02 0.0924533 13.407 0.191828 13.7774 0.337674C14.1563 0.490265 14.5125 0.693861 14.8362 0.942815C15.1691 1.19762 15.4662 1.49588 15.7196 1.82963C16.1594 2.42546 16.4414 3.1226 16.5395 3.85637C16.5722 4.15039 16.5802 4.44663 16.5635 4.74199C16.5334 5.53492 16.2876 6.30466 15.8525 6.96852C15.5016 7.51123 15.0509 7.96028 14.5822 8.39732C14.2074 8.74696 13.8433 9.10812 13.4789 9.46881C13.0118 9.93131 12.5188 10.3676 12.067 10.8453C11.9948 10.9226 11.9494 10.8868 11.8963 10.8347C11.6054 10.5492 11.3213 10.2564 11.023 9.97885C10.4973 9.48922 10.0005 8.97029 9.47746 8.47777C9.21978 8.23523 8.95874 7.9975 8.71741 7.73743C8.29845 7.28766 7.95256 6.78722 7.71964 6.21834C7.5946 5.90366 7.50668 5.57551 7.45764 5.24051C7.38961 4.80635 7.39106 4.37242 7.42591 3.93946C7.44778 3.66619 7.51485 3.39699 7.59825 3.13164C7.70466 2.79132 7.85136 2.46491 8.03525 2.15934C8.31047 1.70308 8.66694 1.32199 9.08061 0.986759C9.41079 0.720656 9.77852 0.504763 10.1719 0.346079C10.4637 0.227882 10.7666 0.139384 11.0762 0.0819307C11.5871 -0.0129581 12.1099 -0.0264929 12.6251 0.0418281ZM11.8602 1.96027C11.679 1.9545 11.3824 2.00829 11.0894 2.10267C10.607 2.2602 10.2039 2.52434 9.88464 2.92225C9.54813 3.34008 9.39622 3.82371 9.35247 4.34649C9.32843 4.64185 9.37434 4.93674 9.44862 5.22034C9.56063 5.64346 9.78681 6.01446 10.088 6.32712C10.6829 6.94403 11.2944 7.54485 11.8965 8.15503C11.9735 8.23307 12.0191 8.20786 12.085 8.1411C12.3975 7.82364 12.721 7.51675 13.0277 7.19449C13.4219 6.78026 13.869 6.41453 14.1921 5.9345C14.3844 5.64634 14.5228 5.33032 14.5718 4.98813C14.6122 4.70597 14.644 4.42261 14.5896 4.13133C14.5471 3.90656 14.4956 3.68852 14.4086 3.47864C14.2519 3.10115 13.9988 2.7945 13.6837 2.54211C13.1907 2.14397 12.6193 1.96123 11.8602 1.96027Z" />
    </symbol>
    <symbol id="map" viewBox="0 0 20 20" fill="none">
        <path d="M0.833984 5.00008V18.3334L6.66732 15.0001L13.334 18.3334L19.1673 15.0001V1.66675L13.334 5.00008L6.66732 1.66675L0.833984 5.00008Z" stroke-width="2" stroke-linecap="round" stroke-linejoin="round" />
        <path d="M6.66602 1.66675V15.0001" stroke-width="2" stroke-linecap="round" stroke-linejoin="round" />
        <path d="M13.334 5V18.3333" stroke-width="2" stroke-linecap="round" stroke-linejoin="round" />
    </symbol>
    <symbol id="pin" viewBox="0 0 17 20" fill="none">
        <path d="M15.8886 8.18843C15.8886 10.946 14.0382 13.6428 11.9785 15.7558C10.9709 16.7894 9.95969 17.6361 9.19909 18.2247C8.92994 18.433 8.69322 18.6082 8.50046 18.7471C8.30771 18.6082 8.07099 18.433 7.80184 18.2247C7.04123 17.6361 6.03004 16.7894 5.02246 15.7558C2.96277 13.6428 1.1123 10.946 1.1123 8.18843C1.1123 6.30091 1.88356 4.48473 3.26609 3.14109C4.64959 1.79652 6.53194 1.03625 8.50046 1.03625C10.469 1.03625 12.3513 1.79652 13.7348 3.14109C15.1174 4.48473 15.8886 6.30091 15.8886 8.18843Z" stroke-width="2" stroke-linecap="round" stroke-linejoin="round" />
        <path d="M8.50015 10.9059C10.0444 10.9059 11.2962 9.68923 11.2962 8.18846C11.2962 6.68769 10.0444 5.47107 8.50015 5.47107C6.95594 5.47107 5.7041 6.68769 5.7041 8.18846C5.7041 9.68923 6.95594 10.9059 8.50015 10.9059Z" stroke-width="2" stroke-linecap="round" stroke-linejoin="round" />
    </symbol>
    <symbol id="pin-thin" viewBox="0 0 22 25" fill="none">
        <path d="M20.61 10.2356C20.61 13.9921 18.112 17.5484 15.5094 20.2184C14.2192 21.5419 12.9272 22.6233 11.9571 23.3741C11.4725 23.7491 11.0693 24.0409 10.7881 24.2382C10.728 24.2804 10.6734 24.3183 10.6248 24.3518C10.5763 24.3183 10.5217 24.2804 10.4616 24.2382C10.1804 24.0409 9.77718 23.7491 9.29255 23.3741C8.32245 22.6233 7.03047 21.5419 5.74028 20.2184C3.13766 17.5484 0.639648 13.9921 0.639648 10.2356C0.639648 7.6703 1.68809 5.20706 3.55917 3.38862C5.43073 1.56971 7.97208 0.54541 10.6248 0.54541C13.2776 0.54541 15.819 1.56971 17.6905 3.38862C19.5616 5.20706 20.61 7.6703 20.61 10.2356Z" fill="white" stroke-linecap="round" stroke-linejoin="round" />
        <path d="M10.6249 13.6323C12.5552 13.6323 14.12 12.1116 14.12 10.2356C14.12 8.35964 12.5552 6.83887 10.6249 6.83887C8.69468 6.83887 7.12988 8.35964 7.12988 10.2356C7.12988 12.1116 8.69468 13.6323 10.6249 13.6323Z" stroke-linecap="round" stroke-linejoin="round" />
    </symbol>
    <symbol id="lens" viewBox="0 0 20 21" fill="none">
        <ellipse cx="8.99984" cy="8.99984" rx="7.99984" ry="7.99984" stroke-width="2" />
        <line x1="14.4132" y1="15.4001" x2="18.5989" y2="19.5858" stroke-width="2" stroke-linecap="round" />
    </symbol>
    <symbol id="arrow-down" viewBox="0 0 15 8" fill="none">
        <path d="M1.59961 1L7.59961 7L13.5996 1" stroke-width="2" stroke-linejoin="round" />
    </symbol>
    <symbol id="arrow-left" viewBox="0 0 24 44" fill="none">
        <path d="M22 42L2 22L22 2" stroke-width="4" stroke-linecap="round" stroke-linejoin="round" />
    </symbol>
    <symbol id="arrow-right" viewBox="0 0 23 44" fill="none">
        <path d="M2 2L21 22L2 42" stroke-width="4" stroke-linecap="round" stroke-linejoin="round" />
    </symbol>
    <symbol id="stock" viewBox="0 0 24 25" stroke="none">
        <rect width="12.2677" height="13.0435" />
        <path d="M0 13.0435L12.2677 -2.1465e-05L23.1141 11.5324L10.8465 24.5759L0 13.0435Z" />
        <ellipse cx="6.64479" cy="7.06525" rx="1.53346" ry="1.63043" fill="white" />
    </symbol>
    <symbol id="calendar" viewBox="0 0 25 25">
        <path d="M16.0186 1.23096V5.96581" fill="none" stroke-width="2" stroke-linecap="square" stroke-linejoin="round" />
        <path d="M8.00879 1.23096V5.96581" fill="none" stroke-width="2" stroke-linecap="square" stroke-linejoin="round" />
        <path d="M3.00391 10.7009H21.0248" fill="none" stroke="white" stroke-width="2" stroke-linecap="square" stroke-linejoin="round" />
        <rect x="1.92188" y="2.27271" width="20.1834" height="6.81818" stroke="none" />
        <rect x="1.92188" y="10.2273" width="20.1834" height="14.7727" stroke="none" />
    </symbol>
    <symbol id="odnoklassniki" viewBox="0 0 46 46">
        <path fill-rule="evenodd" clip-rule="evenodd" d="M25.5221 28.7402C25.6253 28.6886 26.2443 28.5338 26.399 28.4823C26.7085 28.3791 26.9663 28.276 27.2758 28.1728C27.8431 27.9665 28.3589 27.7086 28.8231 27.3991C29.3905 27.0897 29.7515 26.8318 30.0094 26.2644C30.2673 25.6455 30.1126 24.9234 29.8031 24.4592C29.5452 24.0466 28.9779 23.634 28.2558 23.634C27.5337 23.634 27.1211 23.995 26.6053 24.3045C25.5222 24.8718 24.2843 25.1813 22.8401 25.1813C21.4475 25.1813 20.1065 24.8202 19.0749 24.2529C18.5591 23.995 18.1466 23.5824 17.3729 23.634C15.5677 23.6855 15.0003 26.0581 16.1866 26.9865C16.7539 27.3991 17.7855 27.9149 18.456 28.1728C18.7655 28.276 19.0233 28.3791 19.3328 28.4823C19.4875 28.5338 20.1065 28.6886 20.2097 28.7402C19.9518 28.9465 19.7454 29.2043 19.5391 29.4106L17.476 31.4737C17.115 31.8348 16.3929 32.4537 16.1866 32.9179C15.5676 34.4653 17.0119 36.0642 18.6108 35.4453C19.0234 35.2905 19.1781 35.0842 19.436 34.8779L21.4991 32.8148C21.757 32.5569 21.9633 32.3506 22.1696 32.1443C22.3243 31.9895 22.737 31.5253 22.8401 31.4737C22.9948 31.5253 24.0264 32.6601 24.2327 32.8664C24.6969 33.3306 25.1611 33.7948 25.5738 34.2074C26.038 34.6716 26.5021 35.2389 27.0695 35.4453C28.6684 36.0126 30.1642 34.4653 29.4936 32.8664C29.2873 32.4022 28.5652 31.7832 28.2042 31.4222C27.4821 30.7001 26.2442 29.4107 25.5221 28.7402Z" />
        <path fill-rule="evenodd" clip-rule="evenodd" d="M22.634 14.2468C24.1813 14.092 25.4192 15.2783 25.574 16.6709C25.7287 18.2182 24.5424 19.4561 23.1498 19.6108C21.5509 19.7655 20.3646 18.5793 20.2099 17.1867C20.0552 15.5878 21.2414 14.4015 22.634 14.2468ZM22.4277 10.43C18.972 10.6879 16.1352 13.6278 16.3931 17.393C16.651 20.7971 19.6425 23.6854 23.3561 23.4276C26.7602 23.1697 29.597 20.2297 29.3907 16.4646C29.1328 13.0604 26.1413 10.1721 22.4277 10.43Z" />
    </symbol>
    <symbol id="vkontakte" viewBox="0 0 46 46">
        <path fill-rule="evenodd" clip-rule="evenodd" d="M10.1923 15.3955C9.4186 15.4986 9.367 15.9628 9.52173 16.7365C9.8312 18.2838 10.6564 20.1406 11.327 21.4816C11.5848 21.9458 11.8427 22.4616 12.1006 22.8742C12.3585 23.3384 12.6164 23.8026 12.9258 24.2152C13.4932 25.092 14.1121 26.0204 14.7311 26.7941C16.691 29.2183 19.7857 31.3845 23.293 31.2813C25.4592 31.2298 25.1498 30.714 25.1498 28.754C25.1498 28.2898 25.0982 27.052 25.2529 26.7425C25.5624 26.2268 26.4908 26.5878 26.8518 26.7941C27.2644 27.052 27.7802 27.413 28.0897 27.7225C28.296 27.8772 28.5023 28.0835 28.657 28.2382C28.9665 28.5993 29.4307 28.9604 29.7402 29.373C29.8949 29.5793 30.0496 29.734 30.2559 29.9403C31.5454 31.3329 31.5454 31.2813 33.299 31.2813C33.918 31.2813 34.898 31.3329 35.4653 31.2813C36.1359 31.1782 36.4453 30.7656 36.239 30.0435C36.0843 29.5277 35.7232 29.0119 35.4653 28.6509C34.8464 27.7741 34.4853 27.413 33.8664 26.6909C33.8148 26.6393 33.8148 26.5878 33.7633 26.5362L32.4222 25.1436C31.0812 23.8541 31.3907 23.6994 32.2675 22.4616C33.2475 21.069 34.898 18.5417 35.5169 16.9943C35.7232 16.427 36.0326 15.7049 35.4137 15.3955C35.0527 15.2407 33.8148 15.2923 33.299 15.2923C32.7317 15.2923 31.6486 15.2407 31.2359 15.3955C30.7202 15.6018 30.5655 16.1175 30.3076 16.6849C29.6886 18.1806 27.1613 22.771 25.7171 23.0289C24.9951 23.1836 25.0982 22.0489 25.0982 21.4816V17.0975C25.0982 16.4785 25.2014 15.5501 24.634 15.3438C24.273 15.1891 21.0236 15.2923 20.3531 15.2923C20.0436 15.2923 19.5794 15.2407 19.3215 15.3438C19.1152 15.447 18.8573 15.6533 18.8573 15.9628C18.8573 16.427 19.373 16.7364 19.6825 17.3554C19.992 17.9227 20.0436 18.4385 20.0436 19.1606C20.0436 20.0374 20.0952 22.8742 20.0436 23.5447C19.992 24.4731 19.4762 24.4215 18.9088 23.9573C17.6194 22.8742 16.2784 20.1922 15.5563 18.5932C15.35 18.0775 15.0921 17.5617 14.9374 17.0459C14.2669 15.1891 14.37 15.2407 12.3585 15.2407C11.7912 15.3954 10.708 15.3439 10.1923 15.3955Z" />
    </symbol>
    <symbol id="telegram" viewBox="0 0 46 46">
        <path fill-rule="evenodd" clip-rule="evenodd" d="M34.079 10.6822L6.12382 21.3587C5.55646 21.5651 5.55646 22.4419 6.12382 22.6998L13.2931 25.6397L15.9752 34.0469C16.1299 34.5111 16.6973 34.6658 17.0583 34.3564L21.133 30.5396L28.9212 35.6974C29.3338 35.9553 29.8496 35.6974 29.9527 35.2332L35.0073 11.4559C35.1105 10.9401 34.5947 10.4759 34.079 10.6822ZM17.2646 27.187L16.8004 31.5196L14.6341 24.8661L29.9012 14.86L17.2646 27.187Z" />
    </symbol>
    <symbol id="arrow-up" viewBox="0 0 32 32" fill="none">
        <path d="M15.6445 24.6773V6.61279" stroke-width="2" stroke-linecap="round" stroke-linejoin="round" />
        <path d="M9.19336 13.0644L15.645 6.61279L22.0966 13.0644" stroke-width="2" stroke-linecap="round" stroke-linejoin="round" />
    </symbol>
    <symbol id="close" viewBox="0 0 30 30" fill="none">
        <line x1="2.82843" y1="2.15967" x2="26.9188" y2="26.25" stroke-width="4" stroke-linecap="round" />
        <line x1="2.91797" y1="26.0905" x2="27.0083" y2="2.00018" stroke-width="4" stroke-linecap="round" />
    </symbol>
    <symbol id="more" viewBox="0 0 26 25">
        <path d="M1 13C0.447716 13 0 12.5523 0 12C0 11.4477 0.447716 11 1 11V13ZM25.7071 11.2929C26.0976 11.6834 26.0976 12.3166 25.7071 12.7071L19.3431 19.0711C18.9526 19.4616 18.3195 19.4616 17.9289 19.0711C17.5384 18.6805 17.5384 18.0474 17.9289 17.6569L23.5858 12L17.9289 6.34315C17.5384 5.95262 17.5384 5.31946 17.9289 4.92893C18.3195 4.53841 18.9526 4.53841 19.3431 4.92893L25.7071 11.2929ZM1 11L25 11V13L1 13V11Z" />
    </symbol>
    <symbol id="lists" viewBox="0 0 25 25" stroke="none">
        <rect x="6" y="1" width="19" height="2" />
        <rect x="6" y="12" width="19" height="2" />
        <rect x="6" y="22" width="19" height="2" />
        <circle cx="2" cy="2" r="2" />
        <circle cx="2" cy="13" r="2" />
        <circle cx="2" cy="23" r="2" />
    </symbol>
    <symbol id="tiles" viewBox="0 0 25 25">
        <rect x="1" y="1" width="9.02941" height="9.02941" stroke-width="2" />
        <rect x="14.9707" y="1" width="9.02941" height="9.02941" stroke-width="2" />
        <rect x="14.9707" y="14.9707" width="9.02941" height="9.02941" stroke-width="2" />
        <rect x="1" y="14.9707" width="9.02941" height="9.02941" stroke-width="2" />
    </symbol>
    <symbol id="back" viewBox="0 0 26 25" stroke="none">
        <path d="M25 13C25.5523 13 26 12.5523 26 12C26 11.4477 25.5523 11 25 11V13ZM0.292893 11.2929C-0.0976311 11.6834 -0.0976311 12.3166 0.292893 12.7071L6.65685 19.0711C7.04738 19.4616 7.68054 19.4616 8.07107 19.0711C8.46159 18.6805 8.46159 18.0474 8.07107 17.6569L2.41421 12L8.07107 6.34315C8.46159 5.95262 8.46159 5.31946 8.07107 4.92893C7.68054 4.53841 7.04738 4.53841 6.65685 4.92893L0.292893 11.2929ZM25 11L1 11L1 13L25 13V11Z" />
    </symbol>
    <symbol id="clock" viewBox="0 0 25 25" fill="none">
        <path d="M24.5 12.5C24.5 19.1274 19.1274 24.5 12.5 24.5C5.87258 24.5 0.5 19.1274 0.5 12.5C0.5 5.87258 5.87258 0.5 12.5 0.5C19.1274 0.5 24.5 5.87258 24.5 12.5Z" stroke-linecap="round" stroke-linejoin="round" />
        <path d="M12.9629 6.48145V14.1203L17.5925 16.6666" stroke-linecap="round" stroke-linejoin="round" />
    </symbol>
    <symbol id="globe" viewBox="0 0 25 25" fill="none">
        <circle cx="12.5" cy="12.5" r="12" />
        <path d="M17.5 12.5C17.5 15.8992 16.8928 18.9526 15.9314 21.1375C15.4504 22.2306 14.8906 23.084 14.2943 23.6572C13.7005 24.2281 13.095 24.5 12.5 24.5C11.905 24.5 11.2995 24.2281 10.7057 23.6572C10.1094 23.084 9.54956 22.2306 9.06857 21.1375C8.10722 18.9526 7.5 15.8992 7.5 12.5C7.5 9.10084 8.10722 6.04743 9.06857 3.86253C9.54956 2.76938 10.1094 1.91598 10.7057 1.34277C11.2995 0.771941 11.905 0.5 12.5 0.5C13.095 0.5 13.7005 0.771941 14.2943 1.34277C14.8906 1.91598 15.4504 2.76938 15.9314 3.86253C16.8928 6.04743 17.5 9.10084 17.5 12.5Z" />
        <line y1="12.5" x2="25" y2="12.5" />
    </symbol>
    <symbol id="pdf" viewBox="0 0 20 25">
        <path d="M16 24.5H3.99999L1.99696 24.5L0.500257 24.5C0.499995 23.5667 0.499998 22.3117 0.5 21.4596L0.500001 21.25V3.75003C0.500001 3.42723 0.50003 3.0242 0.500061 2.59284C0.500112 1.89628 0.500167 1.12583 0.500114 0.500004L3.99999 0.500035H12.7856C13.0134 0.501153 13.2259 0.586192 13.3788 0.728088C13.3791 0.72829 13.3793 0.728492 13.3795 0.728694L19.2698 6.2509C19.2701 6.25113 19.2703 6.25136 19.2706 6.25158C19.4205 6.39368 19.4988 6.57823 19.5 6.76369V21.25L19.5 24.5L18.0031 24.5L16 24.5Z" fill="none" />
        <path d="M13 22.23L5.95 22.23L5.95 19.17C5.95 18.3967 6.14333 17.8 6.53 17.38C6.91667 16.96 7.45667 16.75 8.15 16.75C8.84333 16.75 9.38667 16.96 9.78 17.38C10.1667 17.8 10.36 18.3967 10.36 19.17L10.36 20.95L13 20.95L13 22.23ZM9.35 20.95L9.35 19.37C9.35 18.45 8.95 17.99 8.15 17.99C7.35667 17.99 6.96 18.45 6.96 19.37L6.96 20.95L9.35 20.95ZM13 15.7066L5.95 15.7066L5.95 13.0866C5.95 11.9066 6.25333 10.9966 6.86 10.3566C7.46667 9.7099 8.33667 9.38656 9.47 9.38656C10.5967 9.38656 11.4667 9.7099 12.08 10.3566C12.6933 10.9966 13 11.9066 13 13.0866L13 15.7066ZM11.94 14.4266L11.94 13.1666C11.94 11.5399 11.1167 10.7266 9.47 10.7266C7.83 10.7266 7.01 11.5399 7.01 13.1666L7.01 14.4266L11.94 14.4266ZM13 8.08937L5.95 8.08937L5.95 3.47937L6.97 3.47937L6.97 6.80937L8.96 6.80937L8.96 3.68937L9.98 3.68937L9.98 6.80937L13 6.80937L13 8.08937Z" stroke="none" />
    </symbol>
    <symbol id="drop" viewBox="0 0 45 45" fill="none">
        <path d="M31 20L22.5 28L14 20" stroke-width="2" stroke-linecap="round" stroke-linejoin="round" />
    </symbol>
    <symbol id="phone" viewBox="0 0 30 30" fill="none">
        <path d="M27.4988 21.1499V24.8999C27.5002 25.248 27.4289 25.5926 27.2895 25.9116C27.15 26.2305 26.9454 26.5169 26.6889 26.7522C26.4324 26.9876 26.1295 27.1667 25.7998 27.2783C25.47 27.3898 25.1205 27.4312 24.7738 27.3999C20.9274 26.9819 17.2326 25.6676 13.9863 23.5624C10.9661 21.6432 8.40549 19.0826 6.48632 16.0624C4.37379 12.8014 3.05912 9.08862 2.64882 5.22488C2.61758 4.87921 2.65866 4.53083 2.76944 4.20191C2.88023 3.87299 3.05828 3.57074 3.29228 3.3144C3.52627 3.05807 3.81107 2.85326 4.12856 2.71303C4.44604 2.5728 4.78924 2.5002 5.13632 2.49988H8.88632C9.49295 2.49391 10.0811 2.70873 10.541 3.10429C11.001 3.49986 11.3014 4.04919 11.3863 4.64988C11.5446 5.84996 11.8381 7.02829 12.2613 8.16238C12.4295 8.60978 12.4659 9.09602 12.3662 9.56348C12.2665 10.0309 12.0349 10.46 11.6988 10.7999L10.1113 12.3874C11.8908 15.5168 14.4819 18.1079 17.6113 19.8874L19.1988 18.2999C19.5387 17.9638 19.9678 17.7322 20.4352 17.6325C20.9027 17.5328 21.3889 17.5692 21.8363 17.7374C22.9704 18.1606 24.1487 18.4541 25.3488 18.6124C25.956 18.698 26.5106 19.0039 26.907 19.4717C27.3034 19.9396 27.514 20.5368 27.4988 21.1499Z" stroke-linecap="round" stroke-linejoin="round" />
    </symbol>
    <symbol id="letter" viewBox="0 0 30 24" stroke="none">
        <path fill-rule="evenodd" clip-rule="evenodd" d="M1.7809 3.67978C1.91045 2.60212 2.85696 1.74341 4.01244 1.74341H25.9857C27.1412 1.74341 28.0877 2.60205 28.2173 3.67964L14.999 12.7388L1.7809 3.67978ZM0.765782 3.94494V20.0676C0.765782 21.8327 2.23566 23.2568 4.01244 23.2568H25.9857C27.7625 23.2568 29.2324 21.8327 29.2324 20.0676V3.93258C29.2324 2.16747 27.7625 0.743408 25.9857 0.743408H4.01244C2.24033 0.743408 0.773513 2.16 0.765813 3.91866C0.765573 3.92743 0.765563 3.93619 0.765782 3.94494ZM1.76578 4.88173L14.7163 13.7574C14.8867 13.8741 15.1113 13.8741 15.2816 13.7574L28.2324 4.88158V20.0676C28.2324 21.2606 27.2303 22.2568 25.9857 22.2568H4.01244C2.7679 22.2568 1.76578 21.2606 1.76578 20.0676V4.88173Z" />
    </symbol>
    <symbol id="bag" viewBox="0 0 21 22" stroke="none">
        <path d="M3.5 0L0 4.4V19.8C0 20.3835 0.245833 20.9431 0.683417 21.3556C1.121 21.7682 1.71449 22 2.33333 22H18.6667C19.2855 22 19.879 21.7682 20.3166 21.3556C20.7542 20.9431 21 20.3835 21 19.8V4.4L17.5 0H3.5Z" />
        <path d="M1 4H20" stroke="white" stroke-width="2" stroke-linecap="square" stroke-linejoin="round" />
        <path d="M14.5423 8.33398C14.5423 9.43905 14.1033 10.4989 13.3219 11.2803C12.5405 12.0617 11.4807 12.5007 10.3757 12.5007C9.27058 12.5007 8.21077 12.0617 7.42937 11.2803C6.64797 10.4989 6.20898 9.43905 6.20898 8.33398" stroke="white" stroke-width="2" stroke-linecap="round" stroke-linejoin="round" />
    </symbol>
    <symbol id="paper" viewBox="0 0 24 26" stroke="none">
        <rect x="1.91992" y="1.04004" width="20.16" height="22.88" />
        <rect x="5.75977" y="18.72" width="12.48" height="2.08" fill="white" />
        <rect x="5.75977" y="13.52" width="12.48" height="2.08" fill="white" />
        <rect x="5.75977" y="4.15991" width="12.48" height="6.24" fill="white" />
    </symbol>
    <symbol id="calendar" viewBox="0 0 25 25">
        <path d="M16.0195 1.23096V5.96581" fill="none" stroke-width="2" stroke-linecap="square" stroke-linejoin="round" />
        <path d="M8.00977 1.23096V5.96581" stroke="#EEEEEE" fill="none" stroke-width="2" stroke-linecap="square" stroke-linejoin="round" />
        <path d="M3.00391 10.7009H21.0248" fill="none" stroke-width="2" stroke-linecap="square" stroke-linejoin="round" />
        <rect x="1.92188" y="2.27271" width="20.1834" height="6.81818" stroke="none" />
        <rect x="1.92188" y="10.2273" width="20.1834" height="14.7727" stroke="none" />
    </symbol>
    <symbol id="pdf" viewBox="0 0 19 25">
        <path d="M15.2 24.5H3.79999L1.89712 24.5L0.500244 24.5C0.499995 23.5667 0.499998 22.3115 0.5 21.4595L0.500001 21.25V3.75003C0.500001 3.42721 0.500028 3.02415 0.500058 2.59277C0.500106 1.89622 0.500159 1.12581 0.500109 0.500005L3.79999 0.500035H12.1462C12.3487 0.501113 12.5415 0.580489 12.6835 0.719153C12.6838 0.719386 12.684 0.71962 12.6842 0.719853L18.28 6.24198C18.2802 6.2422 18.2804 6.24242 18.2806 6.24264C18.4209 6.38258 18.4989 6.56982 18.5 6.76387V21.25L18.5 24.5L17.1029 24.5L15.2 24.5Z" stroke="none" />
        <path d="M12.7344 22.23L5.68437 22.23L5.68437 19.17C5.68437 18.3967 5.87771 17.8 6.26437 17.38C6.65104 16.96 7.19104 16.75 7.88437 16.75C8.57771 16.75 9.12104 16.96 9.51437 17.38C9.90104 17.8 10.0944 18.3967 10.0944 19.17L10.0944 20.95L12.7344 20.95L12.7344 22.23ZM9.08437 20.95L9.08437 19.37C9.08437 18.45 8.68437 17.99 7.88437 17.99C7.09104 17.99 6.69437 18.45 6.69437 19.37L6.69437 20.95L9.08437 20.95ZM12.7344 15.7066L5.68437 15.7066L5.68437 13.0866C5.68437 11.9066 5.98771 10.9966 6.59437 10.3566C7.20104 9.7099 8.07104 9.38656 9.20437 9.38656C10.331 9.38656 11.201 9.7099 11.8144 10.3566C12.4277 10.9966 12.7344 11.9066 12.7344 13.0866L12.7344 15.7066ZM11.6744 14.4266L11.6744 13.1666C11.6744 11.5399 10.851 10.7266 9.20437 10.7266C7.56437 10.7266 6.74437 11.5399 6.74437 13.1666L6.74437 14.4266L11.6744 14.4266ZM12.7344 8.08937L5.68437 8.08937L5.68437 3.47937L6.70437 3.47937L6.70437 6.80937L8.69437 6.80937L8.69437 3.68937L9.71437 3.68937L9.71437 6.80937L12.7344 6.80937L12.7344 8.08937Z" stroke="none" />
    </symbol>

</svg>